<?xml version="1.0" encoding="UTF-8"?>
<svg id="Layer_1" xmlns="http://www.w3.org/2000/svg" version="1.1" viewBox="0 0 274 180">
  <!-- Generator: Adobe Illustrator 29.0.0, SVG Export Plug-In . SVG Version: 2.1.0 Build 186)  -->
  <path d="M114.05,152.81c0,10.83-7.7,18.29-16.36,18.29s-14.68-5.41-14.68-16v-37.3h-10.59v38.02c0,15.76,8.9,24.18,21.54,24.18,8.54,0,16.12-3.73,20.09-10.95v9.38h10.59v-60.64h-10.59v35.01ZM80.02,94.21H13v9.14h28.03v75.08h10.95v-75.08h28.03v-9.14ZM163.48,116.23c-8.78,0-16.48,3.97-20.45,10.71v-9.14h-10.59v60.64h10.59v-35.01c0-10.71,7.82-18.29,17.33-18.29,8.9,0,14.92,5.53,14.92,16.12v37.18h10.59v-37.78c0-16.12-9.26-24.42-22.38-24.42ZM219.07,116.23c-17.81,0-29,13.72-29,31.88s11.19,31.88,29,31.88c14.56,0,23.82-8.54,26.11-20.57h-10.59c-2.17,7.7-7.46,11.79-15.52,11.79-12.15,0-17.33-9.26-18.05-20.33h44.88c1.44-26.11-11.79-34.65-26.83-34.65ZM201.26,142.82c1.32-9.99,6.74-17.93,17.81-17.93,10.11,0,15.76,5.78,16.48,17.93h-34.29Z"/>
  <path d="M87.95,70.03v-36.22h13.36v-8.66h-13.36V5.05h-10.47v17.45c0,1.56-1.08,2.65-2.77,2.65h-6.86v8.66h9.63v37.78c0,10.23,4.33,14.2,13.6,14.2h11.67v-8.78h-8.54c-4.81,0-6.26-1.81-6.26-6.98ZM46.92,39.46l-18.05-4.09c-9.75-2.29-14.08-6.02-14.08-12.75,0-7.94,7.58-13.36,19.13-13.36,12.27,0,19.13,6.02,20.94,15.64h11.19c-.72-14.2-11.91-24.91-31.52-24.91S3.25,9.51,3.25,23.22c0,15.88,12.63,20.45,23.22,22.86l17.45,3.97c9.26,2.05,13.6,6.26,13.6,12.87,0,10.23-9.26,14.92-22.02,14.92s-22.38-6.74-24.3-18.17H0c.72,15.16,13.24,27.67,35.49,27.67,20.69,0,33.45-9.63,33.45-25.27,0-11.91-7.58-19.25-22.02-22.62ZM116.95,35.25v-10.11h-10.59v60.64h10.59v-32.13c0-12.51,6.14-18.53,15.76-18.53h4.21v-9.99h-3.37c-7.1,0-12.87,2.65-16.6,10.11ZM263.41,25.15v9.02c-3.97-6.86-11.79-10.59-19.85-10.59-14.44,0-26.47,12.63-26.47,30.32s12.03,30.68,26.47,30.68c8.06,0,15.16-3.25,19.85-10.95v7.94c0,12.39-8.06,16.84-16.85,16.84-9.38,0-14.56-3.49-16.48-10.47h-10.83c1.68,11.91,11.79,19.13,26.95,19.13,14.32,0,27.79-6.86,27.79-25.75V25.15h-10.59ZM245.85,75.92c-10.83,0-18.05-9.39-18.05-22.02s7.22-21.54,18.05-21.54,18.17,8.66,18.17,21.54-7.22,22.02-18.17,22.02ZM141.01,85.79h10.59V25.15h-10.59v60.64ZM190.94,23.58c-8.78,0-16.48,3.97-20.45,10.71v-9.14h-10.59v60.64h10.59v-35.01c0-10.71,7.82-18.29,17.33-18.29,8.9,0,14.92,5.53,14.92,16.12v37.18h10.59v-37.78c0-16.12-9.26-24.42-22.38-24.42ZM140.41,14.8h11.91V1.56h-11.91v13.24Z"/>
</svg>